<svg version="1.1" xmlns="http://www.w3.org/2000/svg" xmlns:xlink="http://www.w3.org/1999/xlink" x="0" y="0" width="710" height="710" viewBox="-1.54 -0.92 710 710" enable-background="new -1.54 -0.92 710 710" xml:space="preserve"><path fill="#B43E97" d="M333.22,341.25c-1-3.04,1.63-6.66,2.76-9.37c1.43-3.45,2.95-6.72,5.2-9.77c3.67-5,8.06-9.9,14.05-11.64	c0.83,1.55-2.14,5.88-2.6,7.67c-0.86,3.31-2.32,6.94-2.55,10.34c0.17-2.67,2.53-4.7,4.17-6.55c1.13-1.28,1.62-2.74,2.75-4	c2.02-2.25,5.01-5.1,7.63-6.66c3.01-1.8,6.31-3.04,9.33-4.83c3.44-2.04,8.2-3.02,12.12-3.71c1.21-0.21,2.92-0.37,4.13-0.17	c-0.21,3.56-5.94,5.27-6.82,8.89c1.3-0.02,2.49-0.69,3.75-0.93c-1.21,3.23-3.17,6.07-3.55,9.54c-0.35,3.28-1.38,6.94-1.06,10.16	c0.62,6.39,5.54,9.88,10.83,12.89c2.93,1.67,5.57,3.76,8.75,4.94c3.54,1.31,7.3,2.05,10.83,3.53c1,0.42,3.07,1.21,3.68,2.19	c1.16,1.85-0.92,1.83-2.65,1.82c-3.38-0.01-7.06,0.1-10.42-0.41c-3.97-0.59-7.62-1.93-11.23-3.92c-3.19-1.76-6.67-1.15-9.99-2.17	c-2.99-0.92-5.94-2.97-8.48-4.79c-2.83-2.03-6.26-3.36-8.94-5.6c-0.37-0.31-0.73-0.88-1.06-1.18c2.29,3.07,6.19,4.68,9.14,7.05	c1.79,1.44,7.23,4.3,4.57,6.5c-2.25,1.87-7.21,0.96-9.79,0.38c-3.33-0.75-6.51-2.72-9.58-4.33c-2.27-1.19-4.32-2.97-6.62-3.98	c2.93,5.12,9.42,5.55,14.33,7.72c2.8,1.24,4.94,3.04,7.48,4.58c1.9,1.15,3.46,1.52,4.2,3.7c-3.84,4.49-14.67,3.67-19.64,1.93	c-6.62-2.31-14.21-4.71-19.67-9.27c-3.3-2.75-3.97-8.02-5.26-11.19"/><path fill="#72C3AB" d="M18.79,598.13c0,0,176.05-312.39,471.13-91.01C489.92,507.12,315.08,850.54,18.79,598.13z"/><path fill="#B43E97" d="M624.8,36.92c-9.72,8.78-24.55,18.31-35.52,26.39c-6.3,4.66-21.64,9.54-25.19,15.72	c-3.2,5.54,1.16,8.83-0.63,15.38c-4.46,16.07-41.98,34.38-54.99,42.62c-8.15,5.16-24.83,10.94-27.92,22.07	c-1.33,4.88,5.08,8.74,1.15,14.44c-3.38,4.84-16.05,4.72-21.33,5.75c-17.98,3.47-53.36,6.72-66.83,17.61	c-7.46,6.02-3.15,2.6-5.83,11.11c-2.98,9.55-2.96,16.26-10.83,25.05c-20.71,23.1-63.98-0.75-86.07,21.48	c-2.11,2.11,0.76,5.58-2.72,8.26c-2.39,1.84-6.55,2.14-9.5,2.74c-6.53,1.25-15.13,0.2-21.78-0.03c-18.49-0.65-18.52-10-6.54-23.33	c10.51-11.71,22.37-21.63,30.09-36.15c7.1-13.36,8.48-40.45,26.59-43.01c1.49,19.04,19.17-4.01,23.39-9.29	c10.19-12.9,14.22-31.87,31-38.1c14.54-5.42,16.41,9.65,30.1,2.06c11.86-6.5,18.23-27.04,31.64-33.22	c11.63-5.39,18.53,3.58,30.05,0.1c11.27-3.43,16.36-11.99,28.57-13.43c25.51-2.98,44.93-15.45,69.5-20.57	c14.11-2.93,28.14-4.23,40.54-8.54c10.92-3.82,26.51-11.56,37.37-6.45c-1,3.2-1.34-0.38-2.93-0.03"/><path fill="#72C3AB" d="M203.78,12.8c0.55,11.54,2.72,23.6-2.74,33.7c-4.08,7.68-23.96,22.8-34.74,17.29	c-10.59-5.44-2.94-22.6,2.83-28.63c4.05-4.3,7.62-8.6,11.6-12.89c7.31-7.79,13.86-6.87,22.79-11.4c0.31,1.01,0.14,1.88,0.3,2.94"/><path fill="#72C3AB" d="M184.59,89.59c0.96,13.81,1.09,26.41-14.25,30.7c-12.2,3.45-24.72,0.73-35.56-4.5	c-2.37-15.84,6.39-15,18.23-17.22c10.99-2.12,18.45-10.61,30.58-10.02"/><path fill="#72C3AB" d="M111.98,174c5.88,9.69,22.51,6.28,31.64,4.36c5.58-1.16,26.29-13.66,26.61-4.09	c0.29,9.5-18.24,15.92-24.43,18.03c-9.73,3.35-21.48,10.45-31.5,10.11c0.32-0.88,0.95-1.29,1.98-1.14	C99.02,205.64,100.31,176.47,111.98,174"/><path fill="#72C3AB" d="M113.26,78.32c9.22-0.73,7.35,26.78,9.2,33.74c1.92,7.33,4.17,10.01,0.52,17.2	c-1.62,3.19-8.66,13.63-12.84,12.6c-6.69-1.61-12.66-27.88-13.1-32.75c-0.79-8.28,5.49-32.56,16.22-31.81"/><path fill="#72C3AB" d="M91.3,206.15c-8.79-4.4-19.68-10.23-22.44-19.59c-0.01,11.33-1.29,39.52,15.16,38.88	c1.37-7.12,4.81-14.2,6.26-21.34"/><path fill="#72C3AB" d="M83.62,244.73c4.02,3.11,6.39,8.73,11.41,11.03c4.69,2.17,14.58-1.31,16.91,4.18	c-8.29-0.39-17.87,7.55-25.96,4.23c-5.52-2.25-9.39-15.54-1.6-18.41"/><path fill="#72C3AB" d="M475.3,293.27c2.94-1.85,13.15,9.7,13.98,12.9c2.16,8.53-1.4,21.36-5.91,28.42	c-5.91,9.19-15.28,11.81-24.95,14.56c-4.81,1.36-10.39,4.36-15.58,4.28c-3.36-0.02-7.82-0.77-11.16-1.51	c-3.62-0.82-7.84-2.85-11.66-3.57c-4.47-0.83-8.7-1.63-12.55-4.19c-3.03-2.01-4.85-5.24-7.45-7.73c-2.1-2.02-5.9-3.61-5.91-7.21	c0-3.8,2.93-3.77,5.61-5.39c2.54-1.57,4.25-4.04,6.11-6.32c4.65-5.88,6.71-12.09,13.98-15.74c13.57-6.77,30.08-12.4,45.76-11.56	c0,0.33,0.11,0.83,0.17,1.16c2.82-0.1,7.94-0.69,10.73,1.53"/><path d="M125.65,168.82c0-0.15,0.02-0.31,0.03-0.46C122.78,168.66,125.65,168.82,125.65,168.82z"/><path d="M496.06,494.02c-159.34-113.94-274.99-99.07-354.33-47.34v0c-7.03,4.22-14.34,9.61-21.64,15.67	c-18.33,14.64-34.39,31.08-48.28,47.83c-14.36,16.17-24.02,28.6-24.02,28.6c0.14-1.39,0.45-2.85,0.9-4.36	c13.58-20.79,32.83-44.99,59.75-69.59c16.9-14.79,31.19-25.85,33.08-27.3c37.83-28.21,86.81-55.5,150.03-77.29	c6.05,10.18,13.88,10.6,13.88,10.6c-5.97-2.36-7.51-8.74-7.88-12.64c0.6-0.2,1.2-0.39,1.8-0.59c11.59,15.02,23.98,13.23,23.98,13.23	c-11.6-4.98-14.55-12.3-15.3-16.04c1.57-0.5,3.15-0.99,4.74-1.49c11.63,19.28,41.58,19.38,41.58,19.38	c-22.19-5.33-29.57-17.12-31.81-22.33c2.47-0.73,4.96-1.44,7.46-2.15c16.38,25.63,56.33,12.78,56.33,12.78	c-5.78-2.61-6.6-7.93-6.6-7.93c11.2,8.92,57.69,7.89,57.69,7.89c-10.13-1.8-10.8-6.94-10.8-6.94c69.38,0.17,69.46-32.65,69.46-32.65	c0-1.01-0.04-1.97-0.09-2.93l0.09-0.07c-0.03,0-0.06,0.01-0.1,0.01c-2-34.18-38.11-35.52-38.11-35.52	c-53.24,0-97.86,28.27-97.86,28.27c-1.29-2.87,4.57-7.04,4.57-7.04c-23.29,3.49-36.71,36.47-36.71,36.47l0.08,0.37	c-2.39,0.56-4.79,1.14-7.21,1.73c-2.52-16.87,21.55-32.9,21.55-32.9c-23.16,7.03-31.21,35.04-31.3,35.37	c-0.76,0.2-1.52,0.4-2.29,0.6c-4.1-4.43,2.28-26.75,2.28-26.75c-10.84,9.6-9.6,24.38-8.99,28.56c-2.2,0.61-4.41,1.23-6.63,1.86	c-4.53-10.79,4.68-29.86,4.68-29.86c-16.17,7.17-13.02,27.81-12.18,32.06c-92.51,27.67-193.47,79.94-250.03,178.65	c23.84-60.14,74.97-152.99,182.72-249.24c194.06,16.5,300.6-112.85,300.6-112.85c31.11-28.58,85.54-94.16,85.54-94.16	C627.43,52.96,706.93,0,706.93,0c-86.41,30.27-185.35,42.45-185.35,42.45c-139.99,23.96-184.05,63.05-184.05,63.05	c-65.56,46.57-106.89,130.93-120.63,162.39C170.77,307.1,62.14,409.15,18.57,533.59C38.1,433.2,58.79,350.75,79.05,283.33	c16.67,0.34,45.92-4.92,70.45-39.77c0,0-6.45,3.81-11.61,4.76c0,0,35.28-25.28,38.35-48.73c0,0-1.73,3.34-6.45,4.77	c0,0,22.84-30.1,28.08-62.16c0,0-3.71,3.94-6.45,4.29c0,0,7.76-10.03,10.4-33.48c0,0-0.86,1.91-3.01,2.87c0,0,6.94-26.79,7.86-48.81	c0,0-3.02,6.7-6.89,8.6c0,0,18.16-46.39,8.35-73.7l-1.39-1.43c-0.1,0.95-0.18,1.91-0.25,2.88c-18.85,16.62-36.12,37.96-51.91,62.72	c-1.31-11.14,3.92-33.65,49.26-65.61c0,0-55.04,25.22-58.52,44.36c0,0-1.71-2.4,0.88-8.13c0,0-35.27,21.93-48.67,52.05	c0,0-2.14-3.35-0.84-7.18c0,0-43.94,52.54-28.57,83.7c0,0-3.86-1.45-6.42-6.72c0,0-5.2,19.61-2.22,26.32c0,0-2.57-1.92-2.99-6.71	c0,0-28.1,68.86,9.18,103.42c0,0,0.02,0,0.04,0.01C34.92,390.59,16.94,502.24,7.79,570.59c-4.77,20.65-7.54,41.77-7.77,63.21	c-0.01,0.04-0.02,0.07-0.02,0.11c0.01-0.01,0.01-0.03,0.02-0.04c-0.01,0.62-0.01,1.23-0.01,1.85c0,0.01-0.01,0.02-0.01,0.02	c0,0,0.01-0.01,0.01-0.01c0,0.39-0.01,0.79-0.01,1.18l2.42-5.23c6.39-10.66,12.88-20.75,19.46-30.32	c35.33,34.82,293.13,270.09,468.04-94.25c4,2.58,6.14,4.11,6.14,4.11c91.1,41.09,141.73-17.21,141.73-17.21	C562.18,535.15,496.06,494.02,496.06,494.02z M337.9,346c3.02-0.82,6.05-1.63,9.12-2.42c6.31,11.69,28.27,15.29,28.27,15.29	C353.22,361.01,341.96,350.85,337.9,346z M354.39,341.72c2.78-0.69,5.58-1.37,8.4-2.04c2.64,5.17,13.19,10,13.19,10	C365.02,349.17,357.56,344.26,354.39,341.72z M369.87,338.04c3.4-0.78,6.84-1.54,10.31-2.28c7.33,13.06,34.04,18.06,34.04,18.06	C388.66,353.82,375.07,343.3,369.87,338.04z M378.85,330.76c-1.27,0.21-2.54,0.42-3.82,0.64h-5.09c0,0-0.53-11.75,14.5-16.76	C384.44,314.64,373.26,326.68,378.85,330.76z M385.45,334.65c2.63-0.55,5.27-1.09,7.94-1.62c2.99,9.43,17,13.75,17,13.75	C398.19,347.13,388.5,337.92,385.45,334.65z M401.05,331.54c2.01-0.38,4.05-0.75,6.08-1.12c36.35,33.48,86.04-6.9,86.04-6.9	C442.49,367.78,409.9,340.89,401.05,331.54z M460.39,322.24c-0.11,0.16-0.23,0.32-0.33,0.5l-5.64,0.28	C456.41,322.75,458.39,322.49,460.39,322.24z M455.34,321.89c2.72-2.74,10.98-8.99,24.74-1.94c-0.65,0.07-1.3,0.14-1.96,0.21	c-5.39-1.43-13.43-2.65-17.17,1.38C459.15,321.64,457.27,321.76,455.34,321.89z M483.47,321.88c0,0-1.38-0.55-3.47-1.19	c0.48-0.01,0.94-0.03,1.4-0.04C482.08,321.03,482.77,321.44,483.47,321.88c-43.87,32.06-58.27,5.46-58.27,5.46l11.67-1.64	C441.71,341.19,483.47,321.88,483.47,321.88z M490.13,314.64c0,0-28.94-11.66-47.98,8.24c-3.57,0.3-7.29,0.64-11.15,1.02	C435.31,316.84,453.6,292.5,490.13,314.64z M475.21,299.27c0,0-39.65-12.27-60.11,26.36c-3.83,0.45-7.76,0.94-11.79,1.48	C405.31,323.47,431.81,277.13,475.21,299.27z M425.2,294.49c0,0-30.6,8.97-30.87,33.88c-3.08,0.45-6.21,0.92-9.38,1.42	C387.21,323.01,397.66,297.08,425.2,294.49z M387.68,304.65c0,0-29.6,18.57-24.25,28.81c-3.99,0.74-8.03,1.52-12.11,2.34	C351.85,330.48,356.01,312.77,387.68,304.65z M354.33,312.87c0,0-12.1,17.68-8.65,24.09c-0.8,0.17-1.6,0.33-2.4,0.5l-6.18,1.06	C337.1,338.53,344.1,321.68,354.33,312.87z M283.52,264.4c0,0-12.53-8.83-16.85-20.18l19.87-13.87c0,0,7.94,28.17,31.11,34.05	C317.65,264.4,293.02,271.96,283.52,264.4z M290.86,227.41l16.42-10.51c0,0,10.8,32.79,52.71,39.51	C359.99,256.41,317.65,280.79,290.86,227.41z M312.9,213.11l15.12-10.51c0,0,6.48,26.06,59.62,45.4	C387.64,248,350.05,268.6,312.9,213.11z M392.83,243.38c0,0-45.37-15.55-59.19-44.56l9.51-6.73c0,0,28.08,36.15,75.18,42.03	C418.32,234.13,404.06,247.58,392.83,243.38z M423.5,229.09c0,0-47.53-5.89-75.18-41.19l13.82-10.09c0,0,28.51,30.26,87.28,37.83	C449.43,215.64,429.55,231.19,423.5,229.09z M444.24,208.07c0,0-41.05-5.46-75.61-34.47c0,0,7.78-5.89,15.12-10.93	c0,0,37.59,25.22,90.73,31.11C474.48,193.78,462.39,211.85,444.24,208.07z M388.51,160.15c0,0,13.39-10.51,16.85-11.35	c0,0,22.03,24.8,92.46,27.32C497.81,176.12,490.9,208.07,388.51,160.15z M497.81,168.98c0,0-59.62,1.68-85.11-25.64l13.39-9.25	c0,0,8.64,18.5,94.62,18.92C520.72,153.01,509.05,169.4,497.81,168.98z M493.5,145.44c0,0-29.81,1.68-60.92-15.13	c0,0,26.35-14.71,31.54-17.23c0,0,31.11,21.44,77.34,17.23C541.45,130.31,532.81,149.64,493.5,145.44z M520.72,123.16	c0,0-38.03-4.62-48.82-13.87c0,0,24.19-12.19,28.52-13.03c0,0,30.24,13.87,63.08,12.61C563.49,108.87,553.98,127.36,520.72,123.16z M552.25,102.14c0,0-7.78,1.26-44.93-9.25c0,0,11.67-5.88,23.76-11.35c0,0,11.23,8.41,49.25,7.57	C580.34,89.11,574.72,105.93,552.25,102.14z M539.73,78.18c0,0,5.61-3.78,19.01-9.25c0,0-0.43,4.2,40.18,1.68	C598.91,70.62,588.98,91.21,539.73,78.18z M566.08,65.99c0,0,18.58-9.67,22.04-10.09c0,0,9.5,4.62,25.92,0.84	C614.04,56.75,611.75,67.94,566.08,65.99z M594.16,53.38c0,0,54-25.22,63.94-29.42C658.11,23.96,615.76,59.27,594.16,53.38z M626.57,31.95l-43.21,16.81C583.79,30.69,626.57,31.95,626.57,31.95z M581.2,38.67c-5.19,5.46-7.78,14.71-7.78,14.71l-12.96,5.88	C567.81,35.31,581.2,38.67,581.2,38.67z M562.62,42.03c0,0-9.07,12.19-8.64,19.34l-14.69,6.3	C539.29,67.67,552.25,38.67,562.62,42.03z M545.34,45.4c0,0-12.96,15.97-12.96,25.22c0,0-15.99,7.15-18.15,8.41	C514.23,79.02,515.53,50.44,545.34,45.4z M520.72,49.18c-12.1,14.71-12.1,32.37-12.1,32.37c-15.12,6.73-27.65,13.87-27.65,13.87	c3.89-10.51,21.17-38.25,21.17-38.25C504.73,51.28,520.72,49.18,520.72,49.18z M497.38,54.22c-10.37,8.83-27.65,46.66-27.65,46.66	c-6.48,2.94-30.24,15.97-30.24,15.97C464.12,47.92,497.38,54.22,497.38,54.22z M468.44,60.53c-23.76,14.29-35,59.27-35,59.27	c-2.59,1.68-16.85,9.25-16.85,9.25c10.8-35.31,23.76-56.75,23.76-56.75C445.1,61.37,468.44,60.53,468.44,60.53z M437.76,67.25	c-10.8,13.45-28.95,65.57-28.95,65.57c-9.5,5.04-26.36,16.81-26.36,16.81c8.64-41.19,27.22-67.68,27.22-67.68	C414.86,71.88,437.76,67.25,437.76,67.25z M403.63,80.29c-15.12,10.09-31.11,76.08-31.11,76.08l-15.55,10.51	c7.78-50.02,25.49-74.4,25.49-74.4C389.8,81.55,403.63,80.29,403.63,80.29z M374.68,90.37c-18.58,28.16-24.63,80.71-24.63,80.71	l-10.8,7.57C347.46,100.04,374.68,90.37,374.68,90.37z M354.37,102.56c-22.03,36.15-22.47,81.13-22.47,81.13l-18.15,12.61	C312.9,126.94,354.37,102.56,354.37,102.56z M320.24,130.73c-13.83,29.84-12.96,70.2-12.96,70.2l-15.98,11.35	C283.95,147.96,320.24,130.73,320.24,130.73z M291.3,158.89c-10.64,23.51-7.35,58.43-7.35,58.43c-3.46,2.52-10.8,7.99-10.8,7.99	C265.8,183.69,291.3,158.89,291.3,158.89z M268.4,192.1c-4.32,10.93-3.46,38.67-3.46,38.67l-11.23,8.41	C251.98,203.87,268.4,192.1,268.4,192.1z M247.23,223.62c0,0-0.87,13.87,2.16,18.92c0,0-9.94,7.57-11.23,8.41	c0,0-0.02-0.07-0.05-0.19l0.05-0.15c0,0-0.03,0.02-0.07,0.05C237.71,248.92,236.3,239.19,247.23,223.62z M262.35,247.58	c0,0,12.96,19.76,18.58,22.28c0,0-35.86,5.47-49.25,1.68C231.67,271.54,253.27,253.47,262.35,247.58z M82.98,270.44	c2.68-8.68,5.34-17.1,8-25.27c6.27,5.06,16.85,11.22,30.15,9.8C121.12,254.98,121.08,268.58,82.98,270.44z M95.03,232.85	c0.75-2.25,1.5-4.47,2.25-6.67c8.53,2.82,15.72,1.76,20.03,0.51c-6.43,1-14.44-2.87-18.45-5.13c1.1-3.2,2.19-6.37,3.28-9.48	c8.77,4.93,27.15,10.68,57.33-0.55C159.46,211.52,123.47,265.94,95.03,232.85z M206.45,3.68c-1.09,16.62,2.7,34.92-6.56,49.25	c-8.81,13.66-23.1,23.02-38.3,19.19C184.6,28.76,201.32,9.19,206.45,3.68z M149.15,49.21c0,0-1.9,14.01,2.78,21.1	c-3.22,5.18-6.38,10.51-9.48,15.97C138.16,79.72,134.27,66.97,149.15,49.21z M161.52,72.26c0.88,9.12,26.62,1.52,30.36-2.63	c-2.21,6.66-12.04,14.82-17.74,18.56c-7.27,4.78-15.31,6.17-23.71,6.15l-5.35,13.75c0,0,29.21,0.54,46.39-23.6	c0,0,2.88,18.15-4.27,36.74c0,0-42.6,12.45-48.83-0.59l-1.18,2.01C145.85,103.1,154.02,86.41,161.52,72.26z M188.03,123.08	c0,0-9.11,35.82-42.18,36.21c0,0-10.3-0.98-16.75,2.35c0,0-3.16,3.08-3.43,6.71c2.24-0.23,7.92-0.54,21.02-0.92	c0,0,27.06,0.07,36.11-13.31c0,0-9.53,64.3-78.02,50.42c1.54-4.32,3.07-8.55,4.59-12.71c20.12-0.01,34.01-5.98,41.52-10.4	c-11.61,5.18-30.48,3.91-38.79,3.02c5.01-13.42,9.94-25.94,14.74-37.6c4.35,1.49,14.64,3.56,25.43-4.78c0,0-14.98,2.88-22.46-2.35	c1.56-3.72,3.12-7.35,4.65-10.89C138.55,130.53,159.89,138.04,188.03,123.08z M129.35,64.95c0,0-1.25,24.33,5.06,36.01	c-6.35,12.05-12.42,24.64-18.24,37.65C108.54,123.97,95.3,88.64,129.35,64.95z M96.63,98.38c0,0-5.54,24.48,14.16,52.62	c-1.87,4.39-3.7,8.83-5.51,13.3c-11.99-5.94-20.68-23.07-20.68-23.07c-0.61,18.95,10.52,29.16,16.6,33.32	c-1.67,4.28-3.33,8.58-4.95,12.92C86.88,181.27,53.94,154.01,96.63,98.38z M71.51,176.34c0,0,4.23,12.82,19.91,24.31	c-2.83,7.92-5.59,15.91-8.27,23.98C78.98,222.21,64.79,211.23,71.51,176.34z M59.86,198.81c0,0,1.21,27.17,19.54,37.32	c-1.5,4.66-2.96,9.35-4.4,14.04c-5.89-3.29-10.2-13.88-10.2-13.88c-0.3,11.8,5.56,17.88,8.32,20.08c-1.18,3.91-2.37,7.81-3.52,11.74	C62.92,262.38,50.71,245.12,59.86,198.81z M33.23,608.36c-3.59-2.52-7.2-5.08-10.83-7.75c48.96-70.94,102.65-112.28,155.73-134.32	c-1.75,43.43,0.86,152.31,69.31,167.29c0,0,70.75-16.75,71.49-187.12c74.62,7.49,135.65,39.26,162.45,55.35	C338.38,794.32,88.09,645.76,33.23,608.36z"/><path d="M157.52,176.8c0,0-2.22,2.05-6.62,4.64C153.56,180.26,155.84,178.74,157.52,176.8z"/><path d="M117.31,226.69c1.56-0.24,3.03-0.77,4.33-1.68C121.63,225.01,120.05,225.89,117.31,226.69z"/><path fill="#FFF" d="M213.01,495.16c0,7.82,6.31,14.19,14.17,14.19c7.82,0,14.17-6.37,14.17-14.19c0-7.8-6.36-14.16-14.17-14.16	C219.32,481.01,213.01,487.36,213.01,495.16z"/></svg>